<svg id="Capa_1" data-name="Capa 1" xmlns="http://www.w3.org/2000/svg" viewBox="0 0 1080 253.47"><defs><style>.cls-1{fill:#003d78;}.cls-2,.cls-3{fill:#00dcd5;}.cls-2{fill-rule:evenodd;}</style></defs><polygon class="cls-1" points="644.23 41.42 644.23 33.74 604.94 16.61 582 33.87 582 41.59 604.96 25.13 644.23 41.42"/><polygon class="cls-1" points="644.23 57.33 644.23 49.52 604.99 34.35 582 49.65 582 57.46 604.99 42.87 644.23 57.33"/><path class="cls-1" d="M634.07,64.16h3.86L605,53,582,66.55v7.66l23-12.68,21.85,7A8.25,8.25,0,0,1,634.07,64.16Z"/><polygon class="cls-1" points="604.96 72.26 582 83.89 582 91.79 604.96 81.11 619.88 85.14 623.02 77.53 604.96 72.26"/><polygon class="cls-1" points="604.96 92.46 582 102.12 582 110.28 604.96 101.49 612.44 103.15 615.77 95.09 604.96 92.46"/><polygon class="cls-1" points="604.96 112.66 582 120.48 582 129.29 604.41 122.6 608.25 113.31 604.96 112.66"/><polygon class="cls-1" points="582 139.18 582 147.94 595.13 145.08 599.41 134.71 582 139.18"/><polygon class="cls-1" points="582 157.93 582 167.44 586.12 166.91 590.43 156.45 582 157.93"/><polygon class="cls-2" points="577.25 74.31 577.25 66.71 538.04 55.84 515.02 73.45 515.02 80.53 538.04 64.36 577.25 74.31"/><polygon class="cls-2" points="577.25 92.06 577.25 84.05 538.04 74.8 515.02 89.89 515.02 97.41 538.04 83.56 577.25 92.06"/><path class="cls-2" d="M554.18,106.52l23.06,4.19V102.3L538,94.47,531.68,98a46.29,46.29,0,0,1,19,6.22C551.9,104.94,553.05,105.72,554.18,106.52Z"/><path class="cls-2" d="M571.09,128.4l6.15.89v-8.67l-11.15-1.84c.65,1,1.27,2,1.86,3A46.81,46.81,0,0,1,571.09,128.4Z"/><path class="cls-2" d="M574.31,147.91l2.93.32v-9.16l-3.48-.43a52.4,52.4,0,0,1,.59,7.79C574.35,146.93,574.32,147.41,574.31,147.91Z"/><path class="cls-2" d="M570.19,166.63l7.45.5V158l-4.51-.39A47.67,47.67,0,0,1,570.19,166.63Z"/><path class="cls-2" d="M554.34,186.21l22.9.6v-9.64l-13-.59A47.57,47.57,0,0,1,554.34,186.21Z"/><polygon class="cls-1" points="51.88 86.98 117.86 86.98 117.86 76.4 39.89 76.4 39.89 185.34 51.88 185.34 51.88 136.31 95.14 136.31 95.14 125.89 51.88 125.89 51.88 86.98"/><path class="cls-1" d="M159.3,112.81q-8-7-22.8-7a56.26,56.26,0,0,0-14.32,1.87,87,87,0,0,0-15.56,5.91l4.35,8.87a70.82,70.82,0,0,1,12.84-5.21,42.84,42.84,0,0,1,11.6-1.63q10.11,0,15.41,4.74t5.29,14.09v10.27a49.21,49.21,0,0,0-22.88-5.29q-14.32,0-22.72,6.38t-8.41,17.43a21,21,0,0,0,3.66,12.29,24.2,24.2,0,0,0,10.12,8.25,35.74,35.74,0,0,0,15,3,40.21,40.21,0,0,0,13.62-2.26,36.93,36.93,0,0,0,11.6-6.77v7.63h11.2V132.89Q167.31,119.83,159.3,112.81Zm-3.19,55.88a29.41,29.41,0,0,1-10.43,6.84,35.63,35.63,0,0,1-12.76,2.18q-8.71,0-14.24-4.12a12.73,12.73,0,0,1-5.53-10.66,13,13,0,0,1,5.53-11q5.52-4.11,14.86-4.12a46.91,46.91,0,0,1,12.3,1.48,34.53,34.53,0,0,1,10.27,4.74Z"/><path class="cls-1" d="M200.69,120.36a27,27,0,0,1,14.4-4A31.17,31.17,0,0,1,227.46,119a31.55,31.55,0,0,1,10.66,7.55l7.32-8.41a42.83,42.83,0,0,0-14-9.1,43.77,43.77,0,0,0-16.5-3.19,38.07,38.07,0,0,0-20.07,5.45,40.5,40.5,0,0,0-14.32,14.55,39.94,39.94,0,0,0-5.29,20.46,40.38,40.38,0,0,0,5.29,20.55,39.73,39.73,0,0,0,14.32,14.55,38.47,38.47,0,0,0,20.07,5.37,41.38,41.38,0,0,0,16.19-3.27,46.13,46.13,0,0,0,14-9.18L238,166.51a36.5,36.5,0,0,1-10.67,7.31,29.66,29.66,0,0,1-12.06,2.49,27.31,27.31,0,0,1-14.47-4,28.75,28.75,0,0,1-10.35-10.81,30.86,30.86,0,0,1-3.81-15.26,30.38,30.38,0,0,1,3.81-15.17A29.26,29.26,0,0,1,200.69,120.36Z"/><path class="cls-1" d="M305.2,164.64a24.15,24.15,0,0,1-21.48,12.14q-10,0-15.87-6t-5.92-16.42v-47l-11.36,3.41V156.7a31.7,31.7,0,0,0,3.81,15.8A27.18,27.18,0,0,0,265,183.08a31.81,31.81,0,0,0,15.72,3.81q15.25,0,24.44-10.58v9h11.51v-78H305.2Z"/><path class="cls-1" d="M380.29,109.62a31.37,31.37,0,0,0-15.64-3.81q-15.42,0-24.59,10.74v-9.18l-11.52,3v74.94h11.52V127.91a25.34,25.34,0,0,1,9-8.87,24.64,24.64,0,0,1,12.45-3.11q10.13,0,16,6t5.83,16.42v47h11.36V136a31.66,31.66,0,0,0-3.81-15.79A27.33,27.33,0,0,0,380.29,109.62Z"/><path class="cls-1" d="M466.9,115a38.34,38.34,0,0,0-11.68-6.61A39.22,39.22,0,0,0,442,106.12a38.09,38.09,0,0,0-20,5.37,39.58,39.58,0,0,0-19.38,34.78,40.5,40.5,0,0,0,5.21,20.47A39.49,39.49,0,0,0,422,181.21a37.81,37.81,0,0,0,19.84,5.37q14.94,0,25.21-9.49v8.25h11.36V73.75L466.9,76.4Zm0,50.58a27.44,27.44,0,0,1-10.35,8,32.43,32.43,0,0,1-13.62,2.88,27.61,27.61,0,0,1-14.71-4.05,29.31,29.31,0,0,1-10.43-10.89A31.16,31.16,0,0,1,414,146.12a30.69,30.69,0,0,1,3.81-15.33,28.35,28.35,0,0,1,25.14-14.55,32.43,32.43,0,0,1,13.62,2.88A28.21,28.21,0,0,1,466.9,127Z"/><path class="cls-1" d="M565.46,137.61a38.76,38.76,0,0,0-3.8-10.58c-.2-.38-.39-.77-.61-1.14a40.21,40.21,0,0,0-14.32-14.56,37.74,37.74,0,0,0-14.28-5,42.85,42.85,0,0,0-6-.42A40.42,40.42,0,0,0,515,107.59a37.94,37.94,0,0,0-8.67,3.74A39.66,39.66,0,0,0,492,125.89,42.52,42.52,0,0,0,492,167a39.41,39.41,0,0,0,14.4,14.55,38.91,38.91,0,0,0,20.15,5.37,41.89,41.89,0,0,0,8.78-.91,37.29,37.29,0,0,0,11.45-4.46A40,40,0,0,0,561.05,167c.18-.3.33-.61.49-.92a38.37,38.37,0,0,0,3.54-9.09,43.32,43.32,0,0,0,1.25-9.92c0-.2,0-.4,0-.61A43.68,43.68,0,0,0,565.46,137.61ZM555,146.43A32.53,32.53,0,0,1,553.6,156a29.7,29.7,0,0,1-2.43,5.72,30.78,30.78,0,0,1-2.28,3.52,29.44,29.44,0,0,1-8,7.38,26,26,0,0,1-9.48,3.61l-3,.37q-.93.06-1.89.06a26.51,26.51,0,0,1-14.39-4,29.67,29.67,0,0,1-10.28-10.9,32.59,32.59,0,0,1,0-30.58,29.91,29.91,0,0,1,10.28-10.82,26.59,26.59,0,0,1,14.39-4,29,29,0,0,1,5.73.56,26.28,26.28,0,0,1,8.67,3.48,30,30,0,0,1,5.62,4.56,30.67,30.67,0,0,1,4.65,6.26,29,29,0,0,1,2.2,5,31.81,31.81,0,0,1,1.59,9.71C555,146,555,146.22,555,146.43Z"/><path class="cls-3" d="M644.23,72.43h-9.89l-3.1,7.51-3.07,7.43-4,9.77L620.88,105l-4.11,10-3.66,8.86-4.14,10L605.22,143l-4.85,11.75-4.51,10.93L591.58,176l-4.25,10.29-.22.54h17.81l.55-1.39,4.2-10.62,3.84-9.73,3.94-10,.71-1.8h51.32l13.24,33.5h18.63L654.45,72.43ZM633.9,139.12h-10l1.14-2.87,3.87-9.67,3.41-8.53,3.84-9.63,3-7.61L643,91.36l1-2.58.24.62,19.7,49.72Z"/><path class="cls-3" d="M762,110.68a39,39,0,0,0-11.68-6.38,42.68,42.68,0,0,0-34.49,3.52,42.61,42.61,0,0,0-15.28,15.36,43.82,43.82,0,0,0-.08,43.15,42.8,42.8,0,0,0,15.11,15.45,40.07,40.07,0,0,0,21.09,5.72,38.78,38.78,0,0,0,25-8.66v9.47q0,9.81-5.63,14.72t-16.76,4.9a49.55,49.55,0,0,1-12.83-1.72,71.7,71.7,0,0,1-13.64-5.31l-6.38,12.75a62.74,62.74,0,0,0,15.69,6,74.19,74.19,0,0,0,17.65,2.12q18.65,0,28.44-8.66t9.81-25v-84.5l-16,3.18Zm-.33,52.95a27,27,0,0,1-9.88,7.2,32.09,32.09,0,0,1-13,2.61,26.71,26.71,0,0,1-14-3.84,28,28,0,0,1-10.05-10.3A28.59,28.59,0,0,1,711,144.84a29,29,0,0,1,3.68-14.63,26.94,26.94,0,0,1,10-10.13,27.47,27.47,0,0,1,14.13-3.68A32.64,32.64,0,0,1,751.86,119a26.4,26.4,0,0,1,9.8,7Z"/><path class="cls-3" d="M846.17,163.31a22.65,22.65,0,0,1-8.58,8.09,24.6,24.6,0,0,1-11.85,2.86q-9.48,0-15.12-5.72c-3.76-3.82-5.64-8.93-5.64-15.37V103.65l-16.34,3.48V156a34,34,0,0,0,4.16,16.92,29.28,29.28,0,0,0,11.52,11.52,34.38,34.38,0,0,0,17,4.09q15.21,0,24.85-10.13v8.49h16.34V103.65H846.17Z"/><path class="cls-3" d="M932.87,109.7Q924,102,907.79,102a68.87,68.87,0,0,0-16.59,2,93.41,93.41,0,0,0-17.57,6.46l6.21,12.25a91.23,91.23,0,0,1,13.81-5.31,44,44,0,0,1,11.85-1.71q10,0,15,4.41t5.06,13.4v8.66a56.66,56.66,0,0,0-22.55-4.41q-15.54,0-24.6,6.7T869.38,163a22.8,22.8,0,0,0,3.92,13.24,26,26,0,0,0,10.79,8.91,37.71,37.71,0,0,0,16,3.18,43,43,0,0,0,13.73-2.12,36.57,36.57,0,0,0,11.77-6.54v7.19h16.18V131.6Q941.78,117.38,932.87,109.7Zm-7.27,58.51a26.86,26.86,0,0,1-9.8,6,36.09,36.09,0,0,1-12.1,2q-8.34,0-13.57-3.76a11.71,11.71,0,0,1-5.23-10,11.59,11.59,0,0,1,5.23-9.81q5.24-3.75,14.39-3.75a46.54,46.54,0,0,1,11.28,1.3,38.93,38.93,0,0,1,9.8,3.92Z"/><path class="cls-3" d="M1016,72.43v38.09a39,39,0,0,0-11.77-6.13,42.91,42.91,0,0,0-13.24-2A42,42,0,0,0,969.49,108a41.56,41.56,0,0,0-15.37,15.36A42.42,42.42,0,0,0,948.48,145,43.51,43.51,0,0,0,954,167a41.92,41.92,0,0,0,36.61,21.16,37.37,37.37,0,0,0,25.5-9.31v8h16.18V69.33Zm0,91.53a27.84,27.84,0,0,1-10.06,7.36,32.46,32.46,0,0,1-13.15,2.61,27.74,27.74,0,0,1-24.44-14.22,31.24,31.24,0,0,1,0-29.42,26.46,26.46,0,0,1,10.14-10.21,28.39,28.39,0,0,1,14.3-3.68,33.19,33.19,0,0,1,13.15,2.61,26.18,26.18,0,0,1,10.06,7.36Z"/></svg>